# xmcd
#
# Track frame offsets: 
#        150
#        13229
#        39841
#        52418
#        63714
#        79275
#        101871
#        114736
#        128816
#        145246
#        159837
#        174805
#        186184
#        225575
#        241188
#        255824
#
# Disc length: 3613 seconds
#
# Revision: 2
# Processed by: cddbd v1.5.2PL0 Copyright (c) Steve Scherf et al.
# Submitted via: ExactAudioCopyFreeDBPlugin 1.0
#
DISCID=d30e1b10
DTITLE=Benny Goodman - Diverse
DYEAR=0
DGENRE=Jazz
TTITLE0=Basin´s Street Blues
TTITLE1=Stompin´  At The Savoy
TTITLE2=After You´ve Gone
TTITLE3=Goody Goody
TTITLE4=On The Alamo
TTITLE5=St. Louis Blues
TTITLE6=The Kingdom Of Swing
TTITLE7=Jersey Bounce
TTITLE8=Air Mail Special
TTITLE9=And The Angels Sing
TTITLE10=Don´t Be That Way
TTITLE11=China Boy
TTITLE12=Sing, Sing, Sing (With A Swing)
TTITLE13=Body And Soul
TTITLE14=One O´Clock Jump
TTITLE15=Moonglow
EXTD=
EXTT0=
EXTT1=
EXTT2=
EXTT3=
EXTT4=
EXTT5=
EXTT6=
EXTT7=
EXTT8=
EXTT9=
EXTT10=
EXTT11=
EXTT12=
EXTT13=
EXTT14=
EXTT15=
PLAYORDER=
